<svg xmlns="http://www.w3.org/2000/svg" viewBox="0 0 500 385.32"><defs><style>.cls-1{fill:#e0e0e0;}.cls-2{fill:#f0f0f0;}.cls-10,.cls-15,.cls-17,.cls-19,.cls-22,.cls-26,.cls-3,.cls-7,.cls-9{fill:#fff;}.cls-4{fill:#e6e6e6;}.cls-5{fill:#f5f5f5;}.cls-6{fill:#407bff;}.cls-13,.cls-7{opacity:0.3;}.cls-8{fill:#fafafa;}.cls-25,.cls-9{opacity:0.6;}.cls-10{opacity:0.9;}.cls-11{fill:#ff8b7b;}.cls-12{fill:#263238;}.cls-14{fill:#ea7063;}.cls-15{opacity:0.1;}.cls-16,.cls-17{opacity:0.4;}.cls-18{fill:#ff5652;}.cls-19{opacity:0.2;}.cls-20{fill:#b55b52;}.cls-21{opacity:0.5;}.cls-22{opacity:0.7;}.cls-23{fill:#a02724;}.cls-24{fill:#9e4541;}.cls-26{opacity:0.8;}</style></defs><g id="Background_Complete" data-name="Background Complete"><rect class="cls-1" y="340.16" width="500" height="0.25"/><rect class="cls-1" x="412.83" y="346.59" width="32.75" height="0.25"/><rect class="cls-1" x="289.35" y="352.02" width="40.92" height="0.25"/><rect class="cls-1" x="336.4" y="352.02" width="9.48" height="0.25"/><rect class="cls-1" x="93.17" y="349.15" width="38.5" height="0.25"/><rect class="cls-1" x="174.17" y="349.15" width="34.33" height="0.25"/><rect class="cls-1" x="368.23" y="346.59" width="34.92" height="0.25"/><rect class="cls-1" x="51.65" y="349.15" width="33.35" height="0.25"/><path class="cls-1" d="M237,337.8H43.91a5.71,5.71,0,0,1-5.7-5.71V60.66A5.71,5.71,0,0,1,43.91,55H237a5.71,5.71,0,0,1,5.71,5.71V332.09A5.71,5.71,0,0,1,237,337.8ZM43.91,55.2a5.46,5.46,0,0,0-5.45,5.46V332.09a5.46,5.46,0,0,0,5.45,5.46H237a5.47,5.47,0,0,0,5.46-5.46V60.66A5.47,5.47,0,0,0,237,55.2Z" transform="translate(0 -42.24)"/><path class="cls-1" d="M453.31,337.8H260.21a5.72,5.72,0,0,1-5.71-5.71V60.66A5.72,5.72,0,0,1,260.21,55h193.1A5.71,5.71,0,0,1,459,60.66V332.09A5.71,5.71,0,0,1,453.31,337.8ZM260.21,55.2a5.47,5.47,0,0,0-5.46,5.46V332.09a5.47,5.47,0,0,0,5.46,5.46h193.1a5.47,5.47,0,0,0,5.46-5.46V60.66a5.47,5.47,0,0,0-5.46-5.46Z" transform="translate(0 -42.24)"/><path class="cls-2" d="M152.4,143.29l20.18-19.91-4.21-8.18h0c.37-.81.72-1.63,1-2.47h0l8.8-2.68.2-28.36-8.77-2.81h0c-.32-.83-.65-1.66-1-2.48L173,68.26l-19.9-20.19-8.19,4.22h0c-.82-.38-1.64-.72-2.48-1l-2.68-8.8-28.35-.2L108.55,51c-.84.31-1.67.64-2.49,1h0l-8.13-4.33L77.74,67.6,82,75.79c-.37.81-.72,1.64-1,2.47L72.11,81l-.2,28.35,8.77,2.81h0c.31.84.64,1.67,1,2.49h0l-4.33,8.12,19.91,20.19,8.19-4.21c.81.37,1.64.72,2.47,1h0l2.69,8.81,28.35.19,2.81-8.77c.84-.31,1.67-.64,2.49-1ZM140,110.51a21.1,21.1,0,1,1,.21-29.84A21.09,21.09,0,0,1,140,110.51Z" transform="translate(0 -42.24)"/><path class="cls-1" d="M75.73,196,89,183l-2.76-5.37h0c.24-.54.47-1.08.68-1.63h0l5.79-1.76.13-18.62-5.76-1.84h0c-.21-.55-.43-1.1-.67-1.64l2.84-5.33L76.16,133.5l-5.37,2.77h0c-.54-.25-1.08-.47-1.63-.69L67.4,129.8l-18.62-.13-1.85,5.76c-.55.2-1.09.42-1.63.66h0L40,133.25,26.71,146.32l2.76,5.38c-.24.53-.47,1.08-.68,1.62L23,155.09l-.12,18.62,5.75,1.84h0c.21.55.43,1.1.67,1.64h0l-2.84,5.33,13.07,13.26L44.9,193c.54.25,1.08.47,1.63.69h0l1.76,5.78,18.62.13,1.85-5.76c.55-.21,1.09-.43,1.63-.66ZM67.58,174.5a13.86,13.86,0,1,1,.13-19.59A13.85,13.85,0,0,1,67.58,174.5Z" transform="translate(0 -42.24)"/><path class="cls-2" d="M460.72,361.71l9.63-9.5-2-3.9h0c.18-.39.34-.78.5-1.18h0l4.2-1.28.09-13.52L469,331h0c-.15-.4-.31-.79-.48-1.19l2.06-3.87L461,316.3l-3.91,2h0c-.39-.18-.78-.34-1.18-.49l-1.28-4.2-13.52-.1-1.34,4.18c-.4.15-.79.31-1.18.48h0l-3.88-2.07-9.62,9.49,2,3.91c-.18.39-.35.78-.5,1.18l-4.2,1.28-.09,13.52,4.18,1.34h0c.15.4.3.79.48,1.18h0l-2.07,3.87,9.5,9.63,3.9-2c.39.18.78.34,1.18.49h0l1.28,4.2,13.52.1,1.34-4.19c.4-.14.8-.3,1.19-.48Zm-5.92-15.63a10.06,10.06,0,1,1,.1-14.23A10.06,10.06,0,0,1,454.8,346.08Z" transform="translate(0 -42.24)"/><path class="cls-1" d="M342.59,346.88H48.65a6.34,6.34,0,0,1-6.34-6.34V119.85a6.35,6.35,0,0,1,6.34-6.34H342.59a6.35,6.35,0,0,1,6.34,6.34V340.54A6.34,6.34,0,0,1,342.59,346.88ZM48.65,114a5.85,5.85,0,0,0-5.84,5.84V340.54a5.85,5.85,0,0,0,5.84,5.84H342.59a5.85,5.85,0,0,0,5.84-5.84V119.85a5.85,5.85,0,0,0-5.84-5.84Z" transform="translate(0 -42.24)"/><path class="cls-1" d="M55.92,125.17a3.49,3.49,0,1,1,3.49-3.49A3.49,3.49,0,0,1,55.92,125.17Zm0-6.48a3,3,0,1,0,3,3A3,3,0,0,0,55.92,118.69Z" transform="translate(0 -42.24)"/><path class="cls-1" d="M67.4,125.17a3.49,3.49,0,1,1,3.49-3.49A3.49,3.49,0,0,1,67.4,125.17Zm0-6.48a3,3,0,1,0,3,3A3,3,0,0,0,67.4,118.69Z" transform="translate(0 -42.24)"/><path class="cls-1" d="M78.88,125.17a3.49,3.49,0,1,1,3.49-3.49A3.49,3.49,0,0,1,78.88,125.17Zm0-6.48a3,3,0,1,0,3,3A3,3,0,0,0,78.88,118.69Z" transform="translate(0 -42.24)"/><rect class="cls-1" x="159.3" y="29.29" width="306.12" height="232.87" rx="6.09"/><path class="cls-1" d="M459.33,305.4H165.39a7.1,7.1,0,0,1-7.09-7.09V77.62a7.1,7.1,0,0,1,7.09-7.09H459.33a7.1,7.1,0,0,1,7.09,7.09V298.31A7.1,7.1,0,0,1,459.33,305.4ZM165.39,72.53a5.1,5.1,0,0,0-5.09,5.09V298.31a5.1,5.1,0,0,0,5.09,5.09H459.33a5.1,5.1,0,0,0,5.09-5.09V77.62a5.09,5.09,0,0,0-5.09-5.09Z" transform="translate(0 -42.24)"/><path class="cls-2" d="M159.3,87.28v211a6.11,6.11,0,0,0,6.09,6.09H459.33a6.11,6.11,0,0,0,6.09-6.09v-211Z" transform="translate(0 -42.24)"/><rect class="cls-3" x="160.43" y="53.14" width="303.87" height="200.92"/><path class="cls-4" d="M453.55,277.91H171.18a.09.09,0,0,1-.1-.1V108.4a.1.1,0,0,1,.1-.1H453.55a.11.11,0,0,1,.1.1V277.81A.1.1,0,0,1,453.55,277.91Zm-282.27-.2H453.45V108.51H171.28Z" transform="translate(0 -42.24)"/><path class="cls-3" d="M172.66,83.09a3.64,3.64,0,1,1,3.65-3.64A3.64,3.64,0,0,1,172.66,83.09Zm0-6.47a2.83,2.83,0,1,0,2.84,2.83A2.83,2.83,0,0,0,172.66,76.62Z" transform="translate(0 -42.24)"/><path class="cls-3" d="M184.14,83.09a3.64,3.64,0,1,1,3.65-3.64A3.64,3.64,0,0,1,184.14,83.09Zm0-6.47A2.83,2.83,0,1,0,187,79.45,2.83,2.83,0,0,0,184.14,76.62Z" transform="translate(0 -42.24)"/><path class="cls-3" d="M195.62,83.09a3.64,3.64,0,1,1,3.65-3.64A3.64,3.64,0,0,1,195.62,83.09Zm0-6.47a2.83,2.83,0,1,0,2.84,2.83A2.83,2.83,0,0,0,195.62,76.62Z" transform="translate(0 -42.24)"/><rect class="cls-1" x="159.3" y="44.63" width="306.12" height="0.81"/><rect class="cls-2" x="298.12" y="115.33" width="140.04" height="142.73" transform="translate(736.28 331.16) rotate(180)"/><rect class="cls-2" x="178.11" y="115.33" width="92.46" height="46.43" transform="translate(448.67 234.86) rotate(180)"/><rect class="cls-2" x="178.11" y="179.13" width="92.46" height="117.17" transform="translate(448.67 433.19) rotate(180)"/></g><g id="Shadow"><ellipse class="cls-5" cx="250" cy="374" rx="193.89" ry="11.32"/></g><g id="Window"><path class="cls-6" d="M429.39,96.79H70.62A9.65,9.65,0,0,0,61,106.4V345.86a9.64,9.64,0,0,0,9.62,9.61H429.39a9.64,9.64,0,0,0,9.61-9.61V106.4A9.65,9.65,0,0,0,429.39,96.79Z" transform="translate(0 -42.24)"/><path class="cls-7" d="M429.39,96.79H70.62A9.65,9.65,0,0,0,61,106.4V345.86a9.64,9.64,0,0,0,9.62,9.61H429.39a9.64,9.64,0,0,0,9.61-9.61V106.4A9.65,9.65,0,0,0,429.39,96.79Z" transform="translate(0 -42.24)"/><path class="cls-8" d="M132.44,112.83H81.66a3.5,3.5,0,0,1,0-7h50.78a3.5,3.5,0,0,1,0,7Zm-50.78-6a2.5,2.5,0,0,0,0,5h50.78a2.5,2.5,0,0,0,0-5Z" transform="translate(0 -42.24)"/><path class="cls-8" d="M148.92,112.83h-3.39a3.5,3.5,0,0,1,0-7h3.39a3.5,3.5,0,0,1,0,7Zm-3.39-6a2.5,2.5,0,0,0,0,5h3.39a2.5,2.5,0,0,0,0-5Z" transform="translate(0 -42.24)"/><path class="cls-8" d="M163.09,112.83H159.7a3.5,3.5,0,0,1,0-7h3.39a3.5,3.5,0,0,1,0,7Zm-3.39-6a2.5,2.5,0,0,0,0,5h3.39a2.5,2.5,0,0,0,0-5Z" transform="translate(0 -42.24)"/><path class="cls-6" d="M61,121.65V345.86a9.64,9.64,0,0,0,9.62,9.61H429.39a9.64,9.64,0,0,0,9.61-9.61V121.65Z" transform="translate(0 -42.24)"/><path class="cls-9" d="M61,121.65V345.86a9.64,9.64,0,0,0,9.62,9.61H429.39a9.64,9.64,0,0,0,9.61-9.61V121.65Z" transform="translate(0 -42.24)"/><path class="cls-8" d="M62.78,121.65V337.23a5.45,5.45,0,0,0,5.45,5.46H431.77a5.45,5.45,0,0,0,5.45-5.46V121.65Z" transform="translate(0 -42.24)"/><path class="cls-6" d="M80,134.34v40H337v-40Z" transform="translate(0 -42.24)"/><path class="cls-10" d="M80,134.34v40H337v-40Z" transform="translate(0 -42.24)"/><path class="cls-6" d="M336,185.94v106.2H81V185.94H336m1-1H80v108.2H337V184.94Z" transform="translate(0 -42.24)"/><path class="cls-10" d="M336,185.94v106.2H81V185.94H336m1-1H80v108.2H337V184.94Z" transform="translate(0 -42.24)"/></g><g id="Character_2" data-name="Character 2"><polygon class="cls-11" points="365.82 364.7 358.28 364.7 356.27 347.23 363.82 347.23 365.82 364.7"/><polygon class="cls-11" points="411.58 364.7 404.04 364.7 398.16 347.23 405.7 347.23 411.58 364.7"/><path class="cls-12" d="M403,406.06h9.2a.66.66,0,0,1,.64.52l1.49,6.7a1.11,1.11,0,0,1-1.1,1.35c-3-.05-5.12-.23-8.85-.23-2.29,0-7,.24-10.18.24s-3.58-3.13-2.29-3.41c5.82-1.28,8-3,9.87-4.7A1.82,1.82,0,0,1,403,406.06Z" transform="translate(0 -42.24)"/><path class="cls-12" d="M358.33,406.06h8.24a.67.67,0,0,1,.65.52l1.49,6.7a1.11,1.11,0,0,1-1.09,1.35c-3-.05-7.27-.23-11-.23-4.37,0-8.14.24-13.26.24-3.1,0-4-3.13-2.66-3.41,5.9-1.3,10.72-1.43,15.82-4.58A3.48,3.48,0,0,1,358.33,406.06Z" transform="translate(0 -42.24)"/><path class="cls-11" d="M370.15,219.75c-.75,5.84-1.57,11.71-2.44,17.55l-2.61,17.76a15.26,15.26,0,0,1-2.54,6,19.31,19.31,0,0,1-4.12,4.23,31.9,31.9,0,0,1-9.18,4.64,55.55,55.55,0,0,1-9.27,2.18c-1.55.24-3.09.4-4.64.53s-3.05.21-4.7.21l-.51-5.64c2.69-.62,5.54-1.34,8.21-2.23a60.94,60.94,0,0,0,7.74-3,25.52,25.52,0,0,0,6.29-4.05,9.73,9.73,0,0,0,1.87-2.31,5.62,5.62,0,0,0,.69-2.19l.29-4.21c.1-1.5.24-3,.37-4.48q.39-4.47.89-8.92c.65-5.93,1.42-11.82,2.34-17.73Z" transform="translate(0 -42.24)"/><path class="cls-6" d="M372.64,216c2.54,6.75-3.55,29.38-3.55,29.38L352.33,237s.79-11.28,4.62-20S369.85,208.56,372.64,216Z" transform="translate(0 -42.24)"/><path class="cls-13" d="M372.64,216c2.54,6.75-3.55,29.38-3.55,29.38L352.33,237s.79-11.28,4.62-20S369.85,208.56,372.64,216Z" transform="translate(0 -42.24)"/><path class="cls-11" d="M334.15,266.52l-8.23.55,3.85,8.83a7.24,7.24,0,0,0,6.77-5.29Z" transform="translate(0 -42.24)"/><polygon class="cls-11" points="318.49 228.3 323.06 234.48 329.76 233.66 325.92 224.83 318.49 228.3"/><polygon class="cls-14" points="356.28 347.23 357.44 357.37 364.94 356.92 363.82 347.23 356.28 347.23"/><polygon class="cls-14" points="405.71 347.23 398.16 347.23 402.1 358.94 409.12 357.36 405.71 347.23"/><path class="cls-6" d="M363.68,210.8s-8.9,22.78-.45,65.21h40.35c.28-6.2-3.61-36.41,2.36-65.6a104.05,104.05,0,0,0-13.5-1.7,146.52,146.52,0,0,0-17.16,0A75.3,75.3,0,0,0,363.68,210.8Z" transform="translate(0 -42.24)"/><path class="cls-13" d="M363.68,210.8s-8.9,22.78-.45,65.21h40.35c.28-6.2-3.61-36.41,2.36-65.6a104.05,104.05,0,0,0-13.5-1.7,146.52,146.52,0,0,0-17.16,0A75.3,75.3,0,0,0,363.68,210.8Z" transform="translate(0 -42.24)"/><path class="cls-6" d="M378.42,232.12c-.54,5.06-3.32,8.92-6.22,8.61s-4.81-4.66-4.28-9.73,3.33-8.92,6.22-8.62S379,227.05,378.42,232.12Z" transform="translate(0 -42.24)"/><path class="cls-15" d="M378.42,232.12c-.54,5.06-3.32,8.92-6.22,8.61s-4.81-4.66-4.28-9.73,3.33-8.92,6.22-8.62S379,227.05,378.42,232.12Z" transform="translate(0 -42.24)"/><path class="cls-6" d="M397.72,224.36c1.32-6.66,3.88-5.51,6.32-2.23a210.05,210.05,0,0,0-1.44,26.61C400.94,245.92,395.52,235.52,397.72,224.36Z" transform="translate(0 -42.24)"/><path class="cls-16" d="M397.72,224.36c1.32-6.66,3.88-5.51,6.32-2.23a210.05,210.05,0,0,0-1.44,26.61C400.94,245.92,395.52,235.52,397.72,224.36Z" transform="translate(0 -42.24)"/><path class="cls-11" d="M390.74,189.39c-1.08,5.52-2.16,15.63,1.7,19.32,0,0-1.51,5.59-11.77,5.59-11.27,0-5.39-5.59-5.39-5.59,6.16-1.47,6-6,4.93-10.33Z" transform="translate(0 -42.24)"/><path class="cls-14" d="M386.44,193.06l-6.23,5.32a17.15,17.15,0,0,1,.53,3c2.35-.34,5.58-2.92,5.83-5.38A7.91,7.91,0,0,0,386.44,193.06Z" transform="translate(0 -42.24)"/><path class="cls-12" d="M375,168.73c-4.15,3.23-4.12,16.12,2.17,16.39S382.89,162.63,375,168.73Z" transform="translate(0 -42.24)"/><path class="cls-11" d="M392.34,182.87c-2.19,7.16-3.11,11.46-7.68,14.31-6.86,4.29-15-1.19-15-8.86,0-6.91,3.59-17.45,11.4-18.64A10.21,10.21,0,0,1,392.34,182.87Z" transform="translate(0 -42.24)"/><path class="cls-12" d="M390.12,189.87c-4.21.66-6.51-21,3.53-16.21C407.92,180.49,396.94,188.81,390.12,189.87Z" transform="translate(0 -42.24)"/><path class="cls-12" d="M390.52,175.65c-5.19-.45-12.7-.23-14.33-6.64-2.27-8.94,8.42-10.26,11.06-3.42,6.36-2.09,23.87,8.83,12.21,14.37Z" transform="translate(0 -42.24)"/><path class="cls-11" d="M393.7,191.67a7.14,7.14,0,0,1-5.05,2c-2.49-.05-3-2.45-1.74-4.43,1.17-1.79,3.87-3.91,6.08-2.9S395.33,190,393.7,191.67Z" transform="translate(0 -42.24)"/><path class="cls-12" d="M363.23,276s-29.42,40.77-28.59,63.77c.85,23.93,19.84,57,19.84,57l12.27-2.81s-12.21-28.81-11.64-52.31c.62-25.62,34.65-45.84,34.65-65.6Z" transform="translate(0 -42.24)"/><path class="cls-12" d="M377.55,276s-15,42-10.29,63.61c5.14,23.65,31,58.6,31,58.6l12.35-3.4s-16.72-30.07-19.65-53.49c-3.19-25.41,12.66-46.42,12.66-65.32Z" transform="translate(0 -42.24)"/><polygon class="cls-6" points="396.38 357.69 414.14 354.39 413.25 349.62 393.34 352.99 396.38 357.69"/><polygon class="cls-17" points="396.38 357.69 414.14 354.39 413.25 349.62 393.34 352.99 396.38 357.69"/><polygon class="cls-6" points="351.92 355.56 369.89 353.79 369.41 348.89 349.29 350.62 351.92 355.56"/><polygon class="cls-17" points="351.92 355.56 369.89 353.79 369.41 348.89 349.29 350.62 351.92 355.56"/><path class="cls-12" d="M380.83,182.26c-.14.59-.57,1-1,.9s-.59-.65-.44-1.24.57-1,.95-.9S381,181.67,380.83,182.26Z" transform="translate(0 -42.24)"/><path class="cls-12" d="M374.14,180.65c-.14.59-.57,1-1,.91s-.58-.65-.44-1.24.57-1,1-.91S374.28,180.06,374.14,180.65Z" transform="translate(0 -42.24)"/><path class="cls-18" d="M376.19,181.46a21.62,21.62,0,0,1-4,4.38,3.51,3.51,0,0,0,2.7,1.21Z" transform="translate(0 -42.24)"/><path class="cls-12" d="M377.52,189.26a6,6,0,0,1-1.34-.16.19.19,0,0,1-.13-.22.18.18,0,0,1,.22-.13,4.8,4.8,0,0,0,4.26-.92.18.18,0,0,1,.25,0,.17.17,0,0,1,0,.25A5,5,0,0,1,377.52,189.26Z" transform="translate(0 -42.24)"/><path class="cls-12" d="M383.44,180.59a.35.35,0,0,1-.32-.21,2.84,2.84,0,0,0-1.95-1.69.36.36,0,0,1,.12-.71,3.53,3.53,0,0,1,2.48,2.11.35.35,0,0,1-.18.47A.27.27,0,0,1,383.44,180.59Z" transform="translate(0 -42.24)"/><path class="cls-12" d="M371.85,177.66a.34.34,0,0,1-.23-.08.35.35,0,0,1-.05-.5,3.55,3.55,0,0,1,3-1.36.36.36,0,0,1,.31.4.36.36,0,0,1-.39.31,2.88,2.88,0,0,0-2.34,1.1A.34.34,0,0,1,371.85,177.66Z" transform="translate(0 -42.24)"/><rect class="cls-6" x="246.4" y="323.88" width="27.26" height="1" transform="translate(-36.55 -9.2) rotate(-6.79)"/><rect class="cls-6" x="283.16" y="320.45" width="11.23" height="1" transform="translate(-36.22 -5.5) rotate(-6.85)"/><rect class="cls-6" x="210.34" y="269.99" width="241.78" height="42.73" transform="translate(-32.17 -0.97) rotate(-6.8)"/><rect class="cls-6" x="303.77" y="278.19" width="111.07" height="19.63" transform="translate(-31.57 2.33) rotate(-6.8)"/><rect class="cls-19" x="303.77" y="278.19" width="111.07" height="19.63" transform="translate(-31.57 2.33) rotate(-6.8)"/><circle class="cls-6" cx="237.12" cy="302.57" r="12.44" transform="translate(-137.08 172.3) rotate(-38.68)"/><circle class="cls-19" cx="237.12" cy="302.57" r="12.44" transform="translate(-137.08 172.3) rotate(-38.68)"/><circle class="cls-6" cx="272.3" cy="298.38" r="12.44" transform="translate(-130.21 290.21) rotate(-52.45)"/><circle class="cls-19" cx="272.3" cy="298.38" r="12.44" transform="translate(-130.21 290.21) rotate(-52.45)"/><path class="cls-11" d="M408.82,216.28c.66,1.4,1.2,2.64,1.72,4s1,2.63,1.52,4c1,2.65,1.83,5.34,2.58,8.09a85.18,85.18,0,0,1,1.91,8.39l.36,2.15.26,2.19c.1.73.14,1.48.19,2.22l.08,1.12,0,.28,0,.46c0,.36,0,.67,0,1a15.52,15.52,0,0,1-1.68,5.63,34.12,34.12,0,0,1-2.4,4.07,66.18,66.18,0,0,1-5.41,6.78,108.38,108.38,0,0,1-12.2,11.48l-4-4c3.26-4.17,6.52-8.48,9.47-12.76a70.76,70.76,0,0,0,4-6.46,23.61,23.61,0,0,0,1.45-3.1,6.6,6.6,0,0,0,.5-2.15s0-.05,0,0,0,.06,0,0l0-.23-.14-.9c-.09-.61-.17-1.2-.31-1.82l-.36-1.82-.43-1.84c-.61-2.45-1.3-4.91-2.09-7.36s-1.65-4.9-2.56-7.34c-.45-1.22-.91-2.43-1.39-3.64L398.42,221Z" transform="translate(0 -42.24)"/><path class="cls-6" d="M407.52,210.91c6.73,2.59,11.56,27.21,11.56,27.21l-16,6.31s-5.37-12.37-7.18-21.52C394,213.28,399.88,208,407.52,210.91Z" transform="translate(0 -42.24)"/><path class="cls-13" d="M407.52,210.91c6.73,2.59,11.56,27.21,11.56,27.21l-16,6.31s-5.37-12.37-7.18-21.52C394,213.28,399.88,208,407.52,210.91Z" transform="translate(0 -42.24)"/><path class="cls-6" d="M400.54,407.38a2.34,2.34,0,0,1-1.46-.38,1.1,1.1,0,0,1-.37-.95.55.55,0,0,1,.31-.5c.84-.43,3.27,1.06,3.54,1.24a.16.16,0,0,1,.08.18.17.17,0,0,1-.13.14A8.68,8.68,0,0,1,400.54,407.38Zm-1.12-1.56a.43.43,0,0,0-.24.05c-.05,0-.1.07-.11.21a.71.71,0,0,0,.24.64,3.61,3.61,0,0,0,2.68.14A7.3,7.3,0,0,0,399.42,405.82Z" transform="translate(0 -42.24)"/><path class="cls-6" d="M402.47,407.12a.16.16,0,0,1-.09,0c-.78-.42-2.29-2.07-2.13-2.91a.58.58,0,0,1,.57-.47,1,1,0,0,1,.76.23c.88.71,1.06,2.89,1.07,3a.21.21,0,0,1-.08.17A.19.19,0,0,1,402.47,407.12ZM401,404.06h-.09c-.23,0-.25.14-.26.18-.09.5.87,1.75,1.65,2.34a4.34,4.34,0,0,0-.89-2.37A.67.67,0,0,0,401,404.06Z" transform="translate(0 -42.24)"/><path class="cls-6" d="M355.2,407.38a2.88,2.88,0,0,1-1.84-.46,1,1,0,0,1-.33-.87.58.58,0,0,1,.29-.48c.92-.51,3.95,1,4.3,1.21a.18.18,0,0,1,.09.18.17.17,0,0,1-.14.15A12.58,12.58,0,0,1,355.2,407.38Zm-1.37-1.56a.62.62,0,0,0-.33.07.22.22,0,0,0-.12.19.68.68,0,0,0,.22.57c.46.41,1.71.49,3.37.21A9.72,9.72,0,0,0,353.83,405.82Z" transform="translate(0 -42.24)"/><path class="cls-6" d="M357.53,407.12l-.07,0c-.91-.41-2.71-2-2.58-2.89,0-.2.18-.45.67-.5a1.28,1.28,0,0,1,1,.3c1,.79,1.16,2.82,1.17,2.91a.16.16,0,0,1-.07.16A.21.21,0,0,1,357.53,407.12Zm-1.84-3.06h-.1c-.33,0-.35.16-.35.2-.09.52,1.14,1.8,2.07,2.36a4.22,4.22,0,0,0-1-2.33A.92.92,0,0,0,355.69,404.06Z" transform="translate(0 -42.24)"/><path class="cls-11" d="M393.5,273l-7.4,2,6.13,7.43s5.93-3.07,4.65-6.4Z" transform="translate(0 -42.24)"/><polygon class="cls-11" points="380.74 238.93 386.1 244.75 392.23 240.18 386.1 232.75 380.74 238.93"/></g><g id="Character_1" data-name="Character 1"><path class="cls-20" d="M141.63,193c-1.67,1.7-3.46,3.59-5.11,5.47s-3.3,3.81-4.85,5.79-3,4-4.43,6l-1,1.55-1,1.57c-.33.53-.62,1.06-.91,1.6l-.79,1.45a7.91,7.91,0,0,0-.54,2.6,24.67,24.67,0,0,0,0,3.44,64.39,64.39,0,0,0,.95,7.37c.43,2.49,1,5,1.57,7.48s1.23,5,1.88,7.47l-3.66,1.37a106,106,0,0,1-5.56-15,60.13,60.13,0,0,1-1.74-8,30.68,30.68,0,0,1-.31-4.37,14,14,0,0,1,.86-5.06c.22-.55.35-.77.5-1.1l.45-.94c.3-.63.61-1.25.94-1.85l1-1.82,1-1.77a76,76,0,0,1,4.56-6.75c1.62-2.16,3.3-4.28,5.07-6.3s3.56-4,5.61-5.92Z" transform="translate(0 -42.24)"/><path class="cls-6" d="M142.05,181.09c-5.35.24-10.44,9.13-10.44,9.13l6.33,12.92s10.33-6.46,10.46-14.31C148.48,183.73,147.32,180.85,142.05,181.09Z" transform="translate(0 -42.24)"/><path class="cls-21" d="M142.05,181.09c-5.35.24-10.44,9.13-10.44,9.13l6.33,12.92s10.33-6.46,10.46-14.31C148.48,183.73,147.32,180.85,142.05,181.09Z" transform="translate(0 -42.24)"/><path class="cls-20" d="M126.39,243.29l6.52,1.94-4.34,4.39s-4.69-1.45-5.35-4.64Z" transform="translate(0 -42.24)"/><polygon class="cls-20" points="136.85 208 135.76 212.2 128.57 207.38 132.91 202.99 136.85 208"/><rect class="cls-6" x="128.87" y="208.64" width="158.18" height="59.64" transform="translate(-5.65 -37.19) rotate(-1.37)"/><rect class="cls-9" x="128.87" y="208.64" width="158.18" height="59.64" transform="translate(-5.65 -37.19) rotate(-1.37)"/><rect class="cls-6" x="219.67" y="212.4" width="58.97" height="22.23" transform="translate(-5.28 -36.2) rotate(-1.37)"/><rect class="cls-22" x="219.67" y="212.4" width="58.97" height="22.23" transform="translate(-5.28 -36.2) rotate(-1.37)"/><rect class="cls-6" x="188.07" y="240.06" width="58.97" height="22.23" transform="translate(-5.96 -36.95) rotate(-1.37)"/><rect class="cls-22" x="188.07" y="240.06" width="58.97" height="22.23" transform="translate(-5.96 -36.95) rotate(-1.37)"/><path class="cls-12" d="M179,161.39c-.1.61.14,1.17.54,1.24s.81-.35.92-1-.15-1.17-.55-1.25S179.05,160.77,179,161.39Z" transform="translate(0 -42.24)"/><path class="cls-12" d="M179.68,160.42l1.54-.14S180.28,161.28,179.68,160.42Z" transform="translate(0 -42.24)"/><path class="cls-23" d="M179.37,162.08a17.19,17.19,0,0,0,1.55,4.33,2.71,2.71,0,0,1-2.26,0Z" transform="translate(0 -42.24)"/><path class="cls-12" d="M180.45,157.47a.34.34,0,0,1-.17-.05,3,3,0,0,0-2.69-.16.36.36,0,0,1-.49-.16.35.35,0,0,1,.15-.49,3.71,3.71,0,0,1,3.37.17.36.36,0,0,1,.15.49A.35.35,0,0,1,180.45,157.47Z" transform="translate(0 -42.24)"/><path class="cls-20" d="M159.41,166.43c.15,4.67-.33,13.09-4,15.47,0,0,.48,4.81,8.89,6.43,9.24,1.79,5.17-3.7,5.17-3.7-4.85-2.18-4.1-5.87-2.64-9.2Z" transform="translate(0 -42.24)"/><path class="cls-20" d="M184.59,193.68c.58,2.33,1.31,4.88,2.11,7.28s1.7,4.8,2.71,7.11a51.21,51.21,0,0,0,3.44,6.58,26.64,26.64,0,0,0,4.31,5.46A14,14,0,0,0,199.7,222a9.67,9.67,0,0,0,1.33.66l.42.16a1.59,1.59,0,0,0,.34.06,5.11,5.11,0,0,0,2.32-.5,17.21,17.21,0,0,0,2.89-1.65A64.48,64.48,0,0,0,218,210.23l3.26,2.17c-.69,1.26-1.4,2.41-2.15,3.58s-1.55,2.29-2.4,3.4a42.08,42.08,0,0,1-5.77,6.32,21.63,21.63,0,0,1-3.82,2.69,11.74,11.74,0,0,1-5.36,1.52,9.35,9.35,0,0,1-1.65-.14,9.81,9.81,0,0,1-1.5-.41,16.35,16.35,0,0,1-2.3-1,20.85,20.85,0,0,1-4-2.72c-4.75-4.13-7.65-9.23-10-14.33a72.13,72.13,0,0,1-3.09-7.82,75.1,75.1,0,0,1-2.28-8.13Z" transform="translate(0 -42.24)"/><path class="cls-20" d="M217.56,210.62l2.27-4.16,6.29,1.66s-3.77,5.76-7,5.77Z" transform="translate(0 -42.24)"/><polygon class="cls-20" points="224.96 162.72 229.75 165.89 226.13 165.89 219.82 164.22 224.96 162.72"/><polygon class="cls-20" points="139.3 364.16 147.02 364.73 149.31 347 141.59 346.43 139.3 364.16"/><polygon class="cls-20" points="78.56 326.05 83.89 331.77 98.36 321.41 93.02 315.68 78.56 326.05"/><path class="cls-12" d="M86.23,373.12l-4.46-7.6a.61.61,0,0,0-.76-.28l-6.34,2.56a1.23,1.23,0,0,0-.53,1.77c1.59,2.62,2.49,3.81,4.45,7.15,1.2,2,2.76,5.18,4.42,8s4.48,1.39,4,.06c-2-5.95-1-7.68-.56-10.32A2.07,2.07,0,0,0,86.23,373.12Z" transform="translate(0 -42.24)"/><path class="cls-12" d="M147.5,405.87h-8.67a.62.62,0,0,0-.63.52L137,413.26a1.21,1.21,0,0,0,1.2,1.37c3-.05,4.49-.23,8.31-.23,2.35,0,7.2.25,10.44.25s3.49-3.21,2.15-3.5c-6-1.3-8.35-3.1-10.35-4.81A2,2,0,0,0,147.5,405.87Z" transform="translate(0 -42.24)"/><polygon class="cls-24" points="149.31 347 148.04 356.86 140.41 355.58 141.59 346.44 149.31 347"/><polygon class="cls-24" points="93.02 315.69 98.36 321.41 92.37 325.7 86.84 320.1 93.02 315.69"/><path class="cls-6" d="M139.88,228.11l31,6C185.47,191,182,189.65,182,189.65a64.4,64.4,0,0,0-7-3.27l-.42-.15c-2-.73-2.4-.83-5.05-1.61-4.56-1.07-8.81-2-14.06-2.71l-1-.14c-.95-.12-1.89-.22-2.8-.31-.62-.07-1.23-.11-1.82-.15l-2-.11c-3.38-.16-5.8-.11-5.8-.11C143.76,208,142.47,215.69,139.88,228.11Z" transform="translate(0 -42.24)"/><path class="cls-21" d="M139.88,228.11l31,6C185.47,191,182,189.65,182,189.65a64.4,64.4,0,0,0-7-3.27l-.42-.15c-2-.73-2.4-.83-5.05-1.61-4.56-1.07-8.81-2-14.06-2.71l-1-.14c-.95-.12-1.89-.22-2.8-.31-.62-.07-1.23-.11-1.82-.15l-2-.11c-3.38-.16-5.8-.11-5.8-.11C143.76,208,142.47,215.69,139.88,228.11Z" transform="translate(0 -42.24)"/><path class="cls-6" d="M175.71,202.75a26.14,26.14,0,0,0,.91,13.51c2.57-8.42,4-14.18,4.82-18.12C179.07,197.83,176.54,198.6,175.71,202.75Z" transform="translate(0 -42.24)"/><path class="cls-25" d="M175.71,202.75a26.14,26.14,0,0,0,.91,13.51c2.57-8.42,4-14.18,4.82-18.12C179.07,197.83,176.54,198.6,175.71,202.75Z" transform="translate(0 -42.24)"/><path class="cls-6" d="M181.71,189.5c5.17,3.37,8.46,10.88,9.33,15.17l-12,9.77s-6.53-14.58-4.39-18.3C176.9,192.26,179.76,188.23,181.71,189.5Z" transform="translate(0 -42.24)"/><path class="cls-21" d="M181.71,189.5c5.17,3.37,8.46,10.88,9.33,15.17l-12,9.77s-6.53-14.58-4.39-18.3C176.9,192.26,179.76,188.23,181.71,189.5Z" transform="translate(0 -42.24)"/><path class="cls-20" d="M158.65,155.72c-.77,7.6-1.27,10.8,1.91,15.39,4.78,6.91,14.32,6.48,17.36-.67,2.74-6.43,3.55-17.78-3.35-22.2A10.22,10.22,0,0,0,158.65,155.72Z" transform="translate(0 -42.24)"/><path class="cls-12" d="M158.76,140.21c-4.67,3.46-1.68,4.29-3.67,7.78-2.13,3.74-4.37-.52-8.61,3.59-2.75,2.67,2,5.5-1.47,10.2-2.66,3.65-5.54.49-4.42,8,.77,5.11-2.36,4.47-4.47,7.36-3,4.14-.31,7.11,7.41,8.67s2.22,9.32,9.48,9.55c7.92.26,6.08-10.06,9.94-7.55s10.89.22,10.46-5.95c-.38-5.66-6.67-5.46-1.58-9.33,4-3,5.21-3,2.39-9.44-2.39-5.48,6.39-4.64,6.23-9.39-.3-8.57-6.23-6-8.1-10.39C171.14,140.43,164.74,135.77,158.76,140.21Z" transform="translate(0 -42.24)"/><path class="cls-20" d="M173.42,159.68a6.87,6.87,0,0,0,1.37,3.93c1.18,1.61,2.57,1.19,2.91-.29.31-1.33.07-3.77-1.44-4.89S173.43,158.09,173.42,159.68Z" transform="translate(0 -42.24)"/><path class="cls-6" d="M162.67,232.53s-15.08,50.51-22.45,79.6c-7.78,30.7-44.88,55.71-44.88,55.71L87.43,360s24.8-20.93,32.33-49.58c15.29-58.14,7.93-70.46,20.12-82.28Z" transform="translate(0 -42.24)"/><path class="cls-26" d="M162.67,232.53s-15.08,50.51-22.45,79.6c-7.78,30.7-44.88,55.71-44.88,55.71L87.43,360s24.8-20.93,32.33-49.58c15.29-58.14,7.93-70.46,20.12-82.28Z" transform="translate(0 -42.24)"/><polygon class="cls-6" points="96.03 326.75 86.14 316.92 88.83 313.94 100.86 324.18 96.03 326.75"/><path class="cls-6" d="M155.59,243.29c-9.9,7.63-10.56,36.71-10.33,49.85,5-18.37,11-38.8,14.46-50.62C158.77,241.72,157.41,241.88,155.59,243.29Z" transform="translate(0 -42.24)"/><path class="cls-9" d="M155.59,243.29c-9.9,7.63-10.56,36.71-10.33,49.85,5-18.37,11-38.8,14.46-50.62C158.77,241.72,157.41,241.88,155.59,243.29Z" transform="translate(0 -42.24)"/><path class="cls-6" d="M87.83,377.24a.86.86,0,0,1-.28,0c-.94-.29-1.61-2-1.93-3a.18.18,0,0,1,.06-.19.17.17,0,0,1,.2,0c.29.14,2.79,1.45,2.89,2.43a.64.64,0,0,1-.26.57A1.07,1.07,0,0,1,87.83,377.24Zm-1.71-2.73c.46,1.32,1,2.18,1.53,2.34a.68.68,0,0,0,.64-.17.24.24,0,0,0,.11-.24C88.35,375.92,87.1,375.06,86.12,374.51Z" transform="translate(0 -42.24)"/><path class="cls-6" d="M170.38,234.11s1.93,61.12-2.39,84.14c-4.49,23.94-18.17,78.41-18.17,78.41l-11.13-1.44s7-55,10-78.81c3.25-25.94-1-86.69-1-86.69Z" transform="translate(0 -42.24)"/><path class="cls-26" d="M170.38,234.11s1.93,61.12-2.39,84.14c-4.49,23.94-18.17,78.41-18.17,78.41l-11.13-1.44s7-55,10-78.81c3.25-25.94-1-86.69-1-86.69Z" transform="translate(0 -42.24)"/><polygon class="cls-6" points="152.19 355.06 136.32 353.01 136.51 349.24 153.78 349.99 152.19 355.06"/><path class="cls-6" d="M88.08,374.83a5.69,5.69,0,0,1-2.38-.54.22.22,0,0,1-.09-.16.2.2,0,0,1,.1-.16c.08-.05,2-1.14,3-.79a1,1,0,0,1,.62.56.64.64,0,0,1-.13.8A1.77,1.77,0,0,1,88.08,374.83Zm-1.88-.71c.87.35,2.38.5,2.78.14.07-.05.13-.15,0-.37a.59.59,0,0,0-.39-.36A4.11,4.11,0,0,0,86.2,374.12Z" transform="translate(0 -42.24)"/><path class="cls-6" d="M150.37,407.22a13,13,0,0,1-2.42-.28.19.19,0,0,1-.15-.15.18.18,0,0,1,.1-.19c.35-.18,3.48-1.76,4.41-1.23a.59.59,0,0,1,.3.48,1,1,0,0,1-.36.89A2.9,2.9,0,0,1,150.37,407.22Zm-1.81-.54c1.7.28,3,.21,3.45-.21a.67.67,0,0,0,.23-.59.23.23,0,0,0-.11-.2C151.62,405.4,149.85,406.07,148.56,406.68Z" transform="translate(0 -42.24)"/><path class="cls-6" d="M148,406.94a.19.19,0,0,1-.1,0,.19.19,0,0,1-.08-.17c0-.14.41-3.49,2.25-3.29.5.05.65.31.68.51.14.87-1.73,2.55-2.67,3Zm1.93-3.13c-1.12,0-1.56,1.84-1.69,2.62,1-.57,2.23-1.89,2.15-2.41,0,0,0-.17-.36-.2Z" transform="translate(0 -42.24)"/><path class="cls-6" d="M139.72,226.22l-1.85,2.48c-.15.2.07.46.43.53l32.47,6.29c.28.06.54,0,.58-.21l.74-2.7c0-.19-.17-.39-.47-.45l-31.36-6.08A.55.55,0,0,0,139.72,226.22Z" transform="translate(0 -42.24)"/><path class="cls-6" d="M143.35,230.52l-.84-.16c-.16,0-.28-.15-.25-.25l1-3.5c0-.1.19-.16.35-.13l.84.16c.17,0,.28.15.25.25l-1,3.5C143.68,230.49,143.52,230.55,143.35,230.52Z" transform="translate(0 -42.24)"/><path class="cls-26" d="M143.35,230.52l-.84-.16c-.16,0-.28-.15-.25-.25l1-3.5c0-.1.19-.16.35-.13l.84.16c.17,0,.28.15.25.25l-1,3.5C143.68,230.49,143.52,230.55,143.35,230.52Z" transform="translate(0 -42.24)"/><path class="cls-6" d="M164.56,234.68l-.84-.17c-.17,0-.28-.14-.25-.24l1-3.51c0-.1.19-.16.36-.12l.84.16c.17,0,.28.14.25.25l-1,3.5C164.89,234.65,164.73,234.71,164.56,234.68Z" transform="translate(0 -42.24)"/><path class="cls-26" d="M164.56,234.68l-.84-.17c-.17,0-.28-.14-.25-.24l1-3.51c0-.1.19-.16.36-.12l.84.16c.17,0,.28.14.25.25l-1,3.5C164.89,234.65,164.73,234.71,164.56,234.68Z" transform="translate(0 -42.24)"/></g></svg>